<?xml version="1.0" standalone="no"?><!DOCTYPE svg PUBLIC "-//W3C//DTD SVG 1.1//EN" "http://www.w3.org/Graphics/SVG/1.1/DTD/svg11.dtd"><svg t="1488337765357" class="icon" style="" viewBox="0 0 1024 1024" version="1.1" xmlns="http://www.w3.org/2000/svg" p-id="1655" xmlns:xlink="http://www.w3.org/1999/xlink" width="200" height="200"><defs><style type="text/css"></style></defs><path d="M261.978953 256.862177l0-35.975032C261.978953 204.866518 275.98971 193.414149 292.010337 193.414149L325.426981 193.414149l0-71.437362C325.426981 89.934509 352.936818 65.494738 384.979095 65.494738L582.800835 65.494738c32.042277 0 56.796218 24.439771 56.796218 56.482048L639.597054 193.414149l36.171516 0C691.79022 193.414149 704.068437 204.866518 704.068437 220.887145L704.068437 256.862177l6.651809 0c31.909241 0 56.796218 25.084485 56.796218 56.993726l0 587.522597C767.516465 933.287741 742.629487 960.930614 710.720246 960.930614L268.662487 960.930614C230.371602 960.930614 197.50757 928.066582 197.50757 889.775697L197.50757 383.758232l-77.887571-77.887571C101.345944 287.596606 114.799996 256.862177 140.64381 256.862177L261.978953 256.862177z" p-id="1656" class="selected"></path><path d="M845.192201 320.310205 767.516465 320.310205l0 52.19112 74.704936 0 0 341.800666-74.704936 0 0 53.214475 77.675736 0C872.940479 767.516465 895.435875 745.021069 895.435875 717.27279L895.435875 370.042201C895.435875 342.293923 872.940479 320.310205 845.192201 320.310205z" p-id="1657"></path></svg>