<?xml version="1.0" standalone="no"?><!DOCTYPE svg PUBLIC "-//W3C//DTD SVG 1.1//EN" "http://www.w3.org/Graphics/SVG/1.1/DTD/svg11.dtd"><svg t="1488337896838" class="icon" style="" viewBox="0 0 1024 1024" version="1.1" xmlns="http://www.w3.org/2000/svg" p-id="2604" xmlns:xlink="http://www.w3.org/1999/xlink" width="200" height="200"><defs><style type="text/css"></style></defs><path d="M341.8112 1008.0256c0 8.8064 7.168 15.9744 15.9744 15.9744l342.2208 0c8.8064 0 15.9744-7.168 15.9744-15.9744l0-89.7024L341.8112 918.3232 341.8112 1008.0256zM651.8784 24.3712c0-12.288-10.0352-22.3232-22.3232-22.3232l-201.3184 0c-12.288 0-22.3232 10.0352-22.3232 22.3232l0 163.4304 246.1696 0L652.0832 24.3712zM793.1904 730.9312 578.7648 314.7776c-8.8064 15.9744-26.4192 26.8288-46.6944 26.8288-4.096 0-8.192-0.4096-12.0832-1.4336l216.2688 420.0448c3.2768 6.3488 10.8544 8.8064 17.2032 5.5296l34.2016-17.6128C793.8048 744.8576 796.2624 737.28 793.1904 730.9312zM532.0704 251.904c-23.7568 0-43.2128 18.0224-43.2128 40.1408 0 22.1184 19.2512 40.1408 43.2128 40.1408s43.2128-18.0224 43.2128-40.1408C575.2832 269.9264 555.8272 251.904 532.0704 251.904zM479.232 292.0448c0-27.4432 23.552-49.5616 52.8384-49.5616 29.0816 0 52.8384 22.3232 52.8384 49.5616 0 3.2768-0.4096 6.7584-1.024 9.8304l132.096 253.7472L715.9808 290.4064l-5.5296 0c5.3248 0 7.168-3.2768 4.3008-7.168L651.264 198.2464l0.6144 0 0-0.8192L405.7088 197.4272l0 0.8192 0.6144 0-63.2832 84.992c-2.8672 3.8912-1.024 7.168 4.3008 7.168l-5.5296 0 0 10.24-111.0016 11.0592c-24.576 2.4576-42.5984 24.3712-40.1408 49.152l36.2496 363.3152c2.4576 24.576 24.3712 42.5984 48.9472 40.1408l65.7408-6.5536 0 147.6608 374.1696 0 0-161.5872L501.5552 332.3904C488.0384 323.584 479.232 308.6336 479.232 292.0448zM341.8112 687.3088l-51.6096 9.4208c-16.5888 3.072-31.1296-8.3968-32.5632-25.6l-21.0944-253.7472c-1.4336-17.2032 10.8544-33.5872 27.4432-36.6592l78.0288-14.336L342.016 687.3088z" p-id="2605"></path></svg>